<svg xmlns="http://www.w3.org/2000/svg" xmlns:xlink="http://www.w3.org/1999/xlink" viewBox="0 0 144.942 222.417"><defs><style>.a{fill:url(#a);}.b,.c{stroke:none;}.c{fill:#707070;}</style><linearGradient id="a" x1="0.5" x2="0.5" y2="1" gradientUnits="objectBoundingBox"><stop offset="0" stop-color="#feaef8"/><stop offset="1" stop-color="#e800d8"/></linearGradient></defs><g class="a" transform="translate(56.506) rotate(16)"><path class="b" d="M 46 204.5 C 43.52915954589844 204.5 40.93270874023438 204.0784149169922 38.28276443481445 203.2469787597656 C 35.60018539428711 202.4052581787109 32.92989349365234 201.1641845703125 30.3460521697998 199.5581817626953 C 24.83134269714355 196.1304931640625 20.00192070007324 191.2215728759766 16.37986755371094 185.3621368408203 C 10.96405220031738 176.6015472412109 6.864315986633301 164.6568145751953 4.194552421569824 149.8596801757813 C 1.743026256561279 136.2721099853516 0.5 120.3379974365234 0.5 102.5 C 0.5 88.02297210693359 0.7116578817367554 72.76118469238281 2.247210502624512 59.23086929321289 C 3.035789489746094 52.28231430053711 4.107500076293945 46.24373626708984 5.523605346679688 40.77008056640625 C 7.069631576538086 34.7940788269043 8.97886848449707 29.6623420715332 11.3603687286377 25.08165740966797 C 13.25894737243652 21.42952537536621 15.66281604766846 17.98963165283203 18.5052375793457 14.85750007629395 C 21.17852592468262 11.91171073913574 24.17513084411621 9.304737091064453 27.41178894042969 7.109000205993652 C 30.52731513977051 4.995473861694336 33.73905181884766 3.345657825469971 36.95781707763672 2.205420970916748 C 40.15229034423828 1.073789477348328 43.19452667236328 0.5 46 0.5 C 51.74663162231445 0.5 57.83239364624023 3.027052640914917 63.59939575195313 7.807973861694336 C 69.41347503662109 12.62792110443115 74.61331939697266 19.49931526184082 78.63678741455078 27.6793155670166 C 83.01468658447266 36.57928848266602 86.32347106933594 47.71123504638672 88.47129058837891 60.76594924926758 C 90.48100280761719 72.98120880126953 91.5 87.02255249023438 91.5 102.5 C 91.5 112.5574188232422 91.27955627441406 121.3752136230469 90.8260498046875 129.4572601318359 C 90.30681610107422 138.7108612060547 89.49747467041016 146.7902374267578 88.35179138183594 154.1570587158203 C 87.10620880126953 162.1660766601563 85.44189453125 169.2863464355469 83.40510559082031 175.3200225830078 C 81.20852661132813 181.8271636962891 78.49407958984375 187.3258361816406 75.33718109130859 191.6633758544922 C 73.74026489257813 193.8577880859375 71.65933990478516 195.8454742431641 69.15223693847656 197.5712432861328 C 66.89341735839844 199.1260833740234 64.29497528076172 200.4667358398438 61.42905426025391 201.5559692382813 C 56.50621032714844 203.4269409179688 50.88255310058594 204.5 46 204.5 Z"/><path class="c" d="M 46 1 C 43.25155258178711 1 40.26549911499023 1.564132690429688 37.12479019165039 2.676712036132813 C 33.94620895385742 3.802703857421875 30.77270889282227 5.433151245117188 27.69249725341797 7.52276611328125 C 24.48863220214844 9.696243286132813 21.52215576171875 12.27705383300781 18.87550354003906 15.19346618652344 C 16.06195068359375 18.2938232421875 13.68276214599609 21.69825744628906 11.80400085449219 25.31228637695313 C 9.440132141113281 29.85905456542969 7.54412841796875 34.95628356933594 6.007659912109375 40.89529418945313 C 4.59747314453125 46.34609985351563 3.529945373535156 52.36215209960938 2.744026184082031 59.2872314453125 C 1.211288452148438 72.79286193847656 1 88.03765869140625 1 102.5 C 1 120.3082885742188 2.240371704101563 136.2125244140625 4.686607360839844 149.7708892822266 C 7.345184326171875 164.5060577392578 11.42247009277344 176.3922119140625 16.80518341064453 185.0992126464844 C 20.38687133789063 190.8933715820313 25.16049957275391 195.7463684082031 30.61000061035156 199.1335296630859 C 33.15813064575195 200.7173461914063 35.79000091552734 201.9407958984375 38.43244552612305 202.7698974609375 C 41.03389358520508 203.5861358642578 43.57997512817383 204 46 204 C 50.82418441772461 204 56.38313293457031 202.9388427734375 61.25141906738281 201.0885772705078 C 67.22755432128906 198.8172912597656 71.95852661132813 195.4563751220703 74.93292236328125 191.3691558837891 C 78.05994415283203 187.0726623535156 80.75099945068359 181.6191558837891 82.93136596679688 175.1601104736328 C 84.95905303955078 169.1533966064453 86.61650085449219 162.0610961914063 87.85771179199219 154.0802154541016 C 89.00086975097656 146.729736328125 89.80852508544922 138.6663513183594 90.32684326171875 129.4292602539063 C 90.77981567382813 121.3566055297852 91 112.5479736328125 91 102.5 C 91 87.0496826171875 89.98323822021484 73.03562927246094 87.97792053222656 60.84710693359375 C 85.83808135986328 47.84089660644531 82.5443115234375 36.75588989257813 78.18813323974609 27.89997863769531 C 74.19552612304688 19.78276062011719 69.04049682617188 12.96815490722656 63.28028869628906 8.192901611328125 C 57.60410690307617 3.487258911132813 51.62865829467773 1 46 1 M 46 0 C 57.94034194946289 0 70.81386566162109 10.64189147949219 79.08544921875 27.45860290527344 C 88.21060180664063 46.009521484375 92 72.49699401855469 92 102.5 C 92 139.4089050292969 89.00839233398438 173.7289428710938 75.74144744873047 191.9576110839844 C 68.86289215087891 201.4097442626953 54.84110641479492 205 46 205 C 35.91421127319336 205 23.65318298339844 198.0792083740234 15.95458221435547 185.6250305175781 C 4.555160522460938 167.1854705810547 0 136.6354217529297 0 102.5 C 0 71.47836303710938 1.028816223144531 43.86988830566406 10.91674041748047 24.85099792480469 C 18.86052703857422 9.570236206054688 34.51681518554688 0 46 0 Z"/></g></svg>